<svg xmlns="http://www.w3.org/2000/svg" viewBox="0 0 90 95"  xmlns:xlink="http://www.w3.org/1999/xlink" version="1.1" >
<g fill="#e684df"><g id="line1" fill="#e684df">
<path d="M76.465 26.34a1.003 1.003 0 0 0-.498-.872l-.158-.066-.119-.104L40.357 5.132a1 1 0 0 0-.984-.004l-15.708 8.789a.993.993 0 0 0-.498.769.97.97 0 0 0-.139.479v58l.008.063.012.089c.016.104.046.205.093.299l.01.03.007.01.11.148.051.066.117.09.093.07.005.004 35.583 20.169c.154.086.324.129.494.129.174 0 .346-.055.502-.145l.143-.111.088-.035 15.168-8.377a.995.995 0 0 0 .5-1.016.793.793 0 0 0 .068-.31l.385-57.998zM42.028 60.323l-17-9.669V16.439l17.006 9.694-.006.031v34.159zm-17-7.368l16.561 9.418-16.561 9.101V52.955zm19-25.685L58.9 35.748l-.171 34.074-14.701-8.362V27.27zm16.87 8.774l.164-.215.023-.067 13.367-7.772-.371 56.181-13.461 7.435.278-55.562zM39.856 7.149l33.612 19.184-13.426 7.764-33.855-19.299 13.669-7.649zM26.08 73.179l16.93-9.304a.976.976 0 0 0 .409-.461l15.3 8.701-.099 19.507-32.54-18.443z"></path>
</g></g></svg>