<svg width="250" height="250" viewBox="0 0 250 250" fill="none" xmlns="http://www.w3.org/2000/svg">
<path d="M0 158.113L7.93887e-07 91.5393L199.722 91.5393L199.722 116.505L158.113 158.113L0 158.113Z" fill="url(#paint0_linear)"/>
<path d="M0 66.5742L7.93887e-07 0.000198364L249.653 0.000201341L249.653 66.5742L208.044 66.5742L0 66.5742Z" fill="url(#paint1_linear)"/>
<path d="M0 249.652L7.93887e-07 183.078L249.653 183.078L249.653 249.652L208.044 249.652L0 249.652Z" fill="url(#paint2_linear)"/>
<path d="M116.089 158.113L158.113 116.504V157.697L156.449 158.113H116.089Z" fill="black" fill-opacity="0.15"/>
<path d="M158.114 116.504H199.723L158.114 158.113V116.504Z" fill="white" fill-opacity="0.6"/>
<defs>
<linearGradient id="paint0_linear" x1="-40.7766" y1="124.826" x2="199.722" y2="124.826" gradientUnits="userSpaceOnUse">
<stop stop-color="#0A52E5"/>
<stop offset="1" stop-color="#2E70F9"/>
</linearGradient>
<linearGradient id="paint1_linear" x1="-50.9707" y1="33.2872" x2="249.653" y2="33.2872" gradientUnits="userSpaceOnUse">
<stop stop-color="#0A52E5"/>
<stop offset="1" stop-color="#2E70F9"/>
</linearGradient>
<linearGradient id="paint2_linear" x1="-50.9707" y1="216.365" x2="249.653" y2="216.365" gradientUnits="userSpaceOnUse">
<stop stop-color="#0A52E5"/>
<stop offset="1" stop-color="#2E70F9"/>
</linearGradient>
</defs>
</svg>
