<svg width="32" height="32" viewBox="0 0 32 32" fill="none" xmlns="http://www.w3.org/2000/svg">
<path fill-rule="evenodd" clip-rule="evenodd" d="M14.5856 0.582921C14.6405 0.713156 14.6661 0.854055 14.6607 0.995505C14.5281 4.69334 14.1831 8.05858 12.1422 9.24807C10.1014 10.4376 7.06866 9.06792 3.82112 7.32409C3.69819 7.25736 3.59125 7.16417 3.50788 7.05108C3.42449 6.938 3.36672 6.8078 3.3386 6.66968C3.31047 6.53154 3.31273 6.38887 3.34519 6.2517C3.37762 6.11455 3.43941 5.98627 3.52628 5.87591C6.03411 2.72652 9.61396 0.635511 13.566 0.0115785C13.7044 -0.0103573 13.8459 -0.00104607 13.9803 0.0388427C14.1147 0.0787314 14.2386 0.148209 14.3433 0.242282C14.4479 0.336354 14.5307 0.452686 14.5856 0.582921ZM28.188 7.32407C28.3116 7.25794 28.419 7.16505 28.5029 7.05199C28.5868 6.93895 28.6448 6.80857 28.6732 6.67019C28.7013 6.53182 28.6988 6.38885 28.6658 6.25154C28.6329 6.1142 28.5705 5.98594 28.4828 5.87589C25.9746 2.72758 22.3932 0.639465 18.4408 0.0208071C18.3027 -0.000657903 18.1616 0.00890675 18.0276 0.0488254C17.8936 0.0887442 17.7699 0.158029 17.6654 0.251756C17.5608 0.345484 17.4781 0.461345 17.4229 0.591093C17.3677 0.720838 17.3415 0.861286 17.3461 1.00243C17.4764 4.71644 17.8169 8.05624 19.86 9.24805C21.9032 10.4399 24.9519 9.05865 28.188 7.32407ZM29.9173 22.4607C29.7788 22.4436 29.6456 22.3959 29.5272 22.321C26.4237 20.3554 23.7155 18.3645 23.7155 15.9901C23.7155 13.6157 26.4077 11.6386 29.5295 9.67999C29.6477 9.60504 29.7807 9.55737 29.9192 9.54032C30.0576 9.52327 30.198 9.53732 30.3305 9.58143C30.4631 9.62555 30.5842 9.69865 30.6857 9.79554C30.7869 9.89241 30.8658 10.0107 30.9167 10.1419C32.3611 13.9112 32.3611 18.0897 30.9167 21.859C30.8655 21.9903 30.7865 22.1086 30.6848 22.2055C30.5833 22.3024 30.4619 22.3755 30.3292 22.4196C30.1966 22.4637 30.056 22.4777 29.9173 22.4607ZM2.08264 9.54951C2.22126 9.56656 2.35445 9.61425 2.47276 9.68923C5.5786 11.6455 8.28448 13.6296 8.2822 16.0109C8.27991 18.3922 5.59003 20.3624 2.47276 22.3302C2.35445 22.4052 2.22126 22.4529 2.08264 22.4699C1.94402 22.487 1.80335 22.4729 1.6707 22.4288C1.53806 22.3847 1.41665 22.3116 1.31512 22.2148C1.21358 22.1179 1.13441 21.9996 1.08323 21.8683C-0.361077 18.0989 -0.361077 13.9205 1.08323 10.1512C1.13441 10.0199 1.21358 9.90156 1.31512 9.80466C1.41665 9.7078 1.53806 9.63469 1.6707 9.5906C1.80335 9.54651 1.94402 9.53247 2.08264 9.54951ZM3.49703 24.9489C3.5809 24.836 3.68841 24.7429 3.81195 24.6769C7.04806 22.9423 10.1082 21.5611 12.1513 22.7529C14.1945 23.9447 14.5373 27.2845 14.6653 30.9985C14.6702 31.1396 14.6444 31.2801 14.5895 31.4096C14.5346 31.5394 14.452 31.6554 14.3477 31.7492C14.2433 31.8429 14.1198 31.9122 13.9858 31.9522C13.8519 31.9921 13.7109 32.0016 13.5729 31.9801C9.61549 31.3651 6.02871 29.2766 3.51719 26.125C3.42952 26.0151 3.36694 25.8867 3.33406 25.7495C3.30117 25.612 3.29875 25.4691 3.32693 25.3307C3.35508 25.1924 3.41318 25.0619 3.49703 24.9489ZM17.3416 31.0054C17.3361 31.1468 17.3617 31.2879 17.4166 31.4179C17.4715 31.5482 17.5544 31.6644 17.6592 31.7584C17.7643 31.8517 17.8883 31.9205 18.0225 31.9605C18.1567 32.0005 18.2979 32.0102 18.4362 31.9894C22.3879 31.3662 25.9673 29.275 28.4736 26.125C28.5609 26.0149 28.6231 25.8867 28.6558 25.7492C28.6885 25.6121 28.6908 25.4693 28.6626 25.331C28.6345 25.1928 28.5765 25.0626 28.4928 24.9494C28.4092 24.8365 28.302 24.7434 28.1788 24.6769C24.9336 22.933 21.9009 21.5634 19.8578 22.7529C17.8146 23.9424 17.4718 27.3076 17.3416 31.0054Z" fill="url(#paint0_linear_102_12)"/>
<defs>
<linearGradient id="paint0_linear_102_12" x1="0" y1="0" x2="32.3315" y2="31.7627" gradientUnits="userSpaceOnUse">
<stop stop-color="#79E4D2"/>
<stop offset="0.9999" stop-color="#5BADF1"/>
</linearGradient>
</defs>
</svg>
