<?xml version="1.0" encoding="UTF-8"?>
<svg xmlns="http://www.w3.org/2000/svg" xmlns:xlink="http://www.w3.org/1999/xlink" width="119pt" height="119pt" viewBox="0 0 119 119" version="1.2">
<g id="surface1">
<g style="fill:rgb(100%,100%,100%);fill-opacity:1;">
  <use xlink:href="#glyph0-1" x="126.367657" y="81.55586"/>
</g>
<g style="fill:rgb(100%,100%,100%);fill-opacity:1;">
  <use xlink:href="#glyph0-2" x="166.556276" y="81.55586"/>
</g>
<g style="fill:rgb(100%,100%,100%);fill-opacity:1;">
  <use xlink:href="#glyph0-3" x="202.495405" y="81.55586"/>
</g>
<g style="fill:rgb(100%,100%,100%);fill-opacity:1;">
  <use xlink:href="#glyph0-4" x="236.277759" y="81.55586"/>
</g>
<g style="fill:rgb(100%,100%,100%);fill-opacity:1;">
  <use xlink:href="#glyph0-5" x="259.639264" y="81.55586"/>
</g>
<g style="fill:rgb(100%,100%,100%);fill-opacity:1;">
  <use xlink:href="#glyph0-6" x="275.996584" y="81.55586"/>
</g>
<g style="fill:rgb(100%,100%,100%);fill-opacity:1;">
  <use xlink:href="#glyph0-7" x="330.834196" y="81.55586"/>
</g>
<g style="fill:rgb(100%,100%,100%);fill-opacity:1;">
  <use xlink:href="#glyph0-8" x="367.734269" y="81.55586"/>
</g>
<g style="fill:rgb(100%,100%,100%);fill-opacity:1;">
  <use xlink:href="#glyph0-5" x="405.125491" y="81.55586"/>
</g>
<g style="fill:rgb(100%,100%,100%);fill-opacity:1;">
  <use xlink:href="#glyph0-9" x="421.482811" y="81.55586"/>
</g>
<g style="fill:rgb(100%,100%,100%);fill-opacity:1;">
  <use xlink:href="#glyph0-10" x="456.375591" y="81.55586"/>
</g>
<g clip-path="url(#clip1)" clip-rule="nonzero">
<path style=" stroke:none;fill-rule:nonzero;fill:rgb(36.468506%,36.468506%,100%);fill-opacity:1;" d="M 58.085938 13.941406 C 32.617188 13.941406 11.972656 34.589844 11.972656 60.054688 C 11.972656 85.523438 32.617188 106.167969 58.085938 106.167969 C 83.550781 106.167969 104.199219 85.519531 104.199219 60.054688 C 104.199219 34.589844 83.550781 13.941406 58.085938 13.941406 Z M 46.789062 72.4375 C 46.789062 74.929688 44.769531 76.945312 42.28125 76.945312 C 39.789062 76.945312 37.773438 74.929688 37.773438 72.4375 L 37.773438 53.21875 C 37.773438 50.726562 39.789062 48.707031 42.28125 48.707031 C 44.769531 48.707031 46.789062 50.726562 46.789062 53.21875 Z M 78.632812 72.113281 C 78.632812 75.636719 76.574219 76.898438 73.050781 76.898438 L 56.839844 76.898438 C 53.316406 76.898438 50.460938 74.042969 50.460938 70.519531 L 50.460938 54.574219 C 50.460938 54.574219 50.144531 51.921875 53.082031 49.429688 C 54.742188 48.019531 57.207031 45.328125 58.929688 42.0625 C 62.351562 35.574219 64.398438 33.683594 65.957031 34.191406 C 71.730469 36.0625 68.84375 44.621094 66.980469 48.195312 L 72.253906 48.195312 C 75.773438 48.195312 78.632812 51.050781 78.632812 54.574219 Z M 78.632812 72.113281 "/>
</g>
</g>
</svg>
