<svg class="w-32 h-auto mr-2 fill-current md:w-40" xmlns="http://www.w3.org/2000/svg" viewBox="0 0 144 144">
        <g>
          <path d="M72 119.9c-2.6 0-4.8-2.1-4.8-4.8V28.9c0-2.6 2.1-4.8 4.8-4.8 2.6 0 4.8 2.1 4.8 4.8v86.2c0 2.6-2.2 4.8-4.8 4.8zM52 76.8H29c-2.6 0-4.8-2.1-4.8-4.8 0-2.7 2.1-4.8 4.8-4.8h23c2.6 0 4.8 2.1 4.8 4.8 0 2.7-2.2 4.8-4.8 4.8zM115.1 76.8H92c-2.6 0-4.8-2.1-4.8-4.8 0-2.7 2.1-4.8 4.8-4.8h23c2.6 0 4.8 2.1 4.8 4.8 0 2.7-2.1 4.8-4.7 4.8z"></path>
          <path d="M72 144c-39.7 0-72-32.3-72-72S32.3 0 72 0s72 32.3 72 72-32.3 72-72 72zM72 9.6C37.6 9.6 9.6 37.6 9.6 72s28 62.4 62.4 62.4 62.4-28 62.4-62.4S106.4 9.6 72 9.6z"></path>
        </g>
      </svg>